HIERARCHY
ROOT newVegas:Hips
{
	OFFSET 0.000000 96.479958 0.000000
	CHANNELS 6 Xposition Yposition Zposition Xrotation Yrotation Zrotation
	JOINT newVegas:Pelvis
	{
		OFFSET 0.000000 0.000000 0.000000
		CHANNELS 3 Xrotation Yrotation Zrotation
		JOINT newVegas:LeftUpLeg
		{
			OFFSET 18.735201 -5.666702 -4.541200
			CHANNELS 3 Xrotation Yrotation Zrotation
			JOINT newVegas:LeftLeg
			{
				OFFSET -0.021200 -31.938179 0.493100
				CHANNELS 3 Xrotation Yrotation Zrotation
				JOINT newVegas:LeftFoot
				{
					OFFSET 0.021200 -31.938179 -4.336299
					CHANNELS 3 Xrotation Yrotation Zrotation
					JOINT newVegas:LeftToeBase
					{
						OFFSET 0.943001 -26.722000 15.023500
						CHANNELS 3 Xrotation Yrotation Zrotation
						End Site
						{
							OFFSET 0.000000 30.670183 0.000000
						}
					}
				}
				JOINT newVegas:Left_PantLeg
				{
					OFFSET 0.663870 -9.044666 -1.108900
					CHANNELS 3 Xrotation Yrotation Zrotation
					End Site
					{
						OFFSET 1.415995 20.635357 0.000000
					}
				}
			}
		}
		JOINT newVegas:RightUpLeg
		{
			OFFSET -18.735201 -5.666702 -4.541200
			CHANNELS 3 Xrotation Yrotation Zrotation
			JOINT newVegas:RightLeg
			{
				OFFSET 0.018946 -31.938133 0.493100
				CHANNELS 3 Xrotation Yrotation Zrotation
				JOINT newVegas:RightFoot
				{
					OFFSET -0.018946 -31.938126 -4.336299
					CHANNELS 3 Xrotation Yrotation Zrotation
					JOINT newVegas:RightToeBase
					{
						OFFSET -0.943001 -26.722004 15.023500
						CHANNELS 3 Xrotation Yrotation Zrotation
						End Site
						{
							OFFSET 0.000000 30.670187 0.000000
						}
					}
				}
				JOINT newVegas:Right_PantLeg
				{
					OFFSET -0.661674 -9.044716 -1.108900
					CHANNELS 3 Xrotation Yrotation Zrotation
					End Site
					{
						OFFSET -1.415958 20.635269 0.000000
					}
				}
			}
		}
	}
	JOINT newVegas:Spine
	{
		OFFSET 0.000000 10.199997 -0.299500
		CHANNELS 3 Xrotation Yrotation Zrotation
		JOINT newVegas:Spine1
		{
			OFFSET 0.000000 11.900002 -1.516600
			CHANNELS 3 Xrotation Yrotation Zrotation
			JOINT newVegas:Spine2
			{
				OFFSET 0.000000 13.600006 -2.842500
				CHANNELS 3 Xrotation Yrotation Zrotation
				JOINT newVegas:Neck
				{
					OFFSET 0.000000 9.624100 -2.890100
					CHANNELS 3 Xrotation Yrotation Zrotation
					JOINT newVegas:Head
					{
						OFFSET 0.000000 14.068802 -1.351900
						CHANNELS 3 Xrotation Yrotation Zrotation
						JOINT newVegas:Hair_Back
						{
							OFFSET 0.000000 3.231903 -17.524799
							CHANNELS 3 Xrotation Yrotation Zrotation
							End Site
							{
								OFFSET 0.000000 19.849884 0.000000
							}
						}
						JOINT newVegas:Hair_Front
						{
							OFFSET 0.000000 31.260406 4.573800
							CHANNELS 3 Xrotation Yrotation Zrotation
							JOINT newVegas:Hair_Front1
							{
								OFFSET 0.000000 2.284103 11.993300
								CHANNELS 3 Xrotation Yrotation Zrotation
								JOINT newVegas:Hair_Front2
								{
									OFFSET 0.000000 2.284103 11.993300
									CHANNELS 3 Xrotation Yrotation Zrotation
									End Site
									{
										OFFSET 0.000000 12.208862 0.000000
									}
								}
							}
						}
						JOINT newVegas:Jowel
						{
							OFFSET 0.000000 -7.458206 6.864100
							CHANNELS 3 Xrotation Yrotation Zrotation
							End Site
							{
								OFFSET 0.000000 19.849884 0.000000
							}
						}
					}
				}
				JOINT newVegas:LeftShoulder
				{
					OFFSET 15.263000 10.923401 -0.547700
					CHANNELS 3 Xrotation Yrotation Zrotation
					JOINT newVegas:LeftArm
					{
						OFFSET 25.438599 -2.830597 -13.032500
						CHANNELS 3 Xrotation Yrotation Zrotation
						JOINT newVegas:LeftForeArm
						{
							OFFSET 29.960503 0.000000 0.000000
							CHANNELS 3 Xrotation Yrotation Zrotation
							JOINT newVegas:LeftHand
							{
								OFFSET 27.849251 0.000000 0.000000
								CHANNELS 3 Xrotation Yrotation Zrotation
								JOINT newVegas:LeftHandThumb1
								{
									OFFSET 4.487587 -3.305161 6.305391
									CHANNELS 3 Xrotation Yrotation Zrotation
									JOINT newVegas:LeftHandThumb2
									{
										OFFSET 5.480453 -3.164139 3.164143
										CHANNELS 3 Xrotation Yrotation Zrotation
										JOINT newVegas:LeftHandThumb3
										{
											OFFSET 5.159721 -2.978973 2.978967
											CHANNELS 3 Xrotation Yrotation Zrotation
											End Site
											{
												OFFSET 2.494507 5.926697 1.738678
											}
										}
									}
								}
								JOINT newVegas:LeftHandIndex1
								{
									OFFSET 18.578728 -0.527832 5.208049
									CHANNELS 3 Xrotation Yrotation Zrotation
									JOINT newVegas:LeftHandIndex2
									{
										OFFSET 3.192009 0.000000 0.000000
										CHANNELS 3 Xrotation Yrotation Zrotation
										JOINT newVegas:LeftHandIndex3
										{
											OFFSET 3.835129 0.000000 0.000000
											CHANNELS 3 Xrotation Yrotation Zrotation
											End Site
											{
												OFFSET -0.034599 3.816971 0.371180
											}
										}
									}
								}
								JOINT newVegas:LeftHandMiddle1
								{
									OFFSET 18.476105 0.000000 0.000000
									CHANNELS 3 Xrotation Yrotation Zrotation
									JOINT newVegas:LeftHandMiddle2
									{
										OFFSET 3.324875 0.000000 0.000000
										CHANNELS 3 Xrotation Yrotation Zrotation
										JOINT newVegas:LeftHandMiddle3
										{
											OFFSET 4.596550 0.000000 0.000000
											CHANNELS 3 Xrotation Yrotation Zrotation
											End Site
											{
												OFFSET 0.057701 4.578827 0.399218
											}
										}
									}
								}
								JOINT newVegas:LeftHandRing1
								{
									OFFSET 17.732719 0.121887 -4.201567
									CHANNELS 3 Xrotation Yrotation Zrotation
									JOINT newVegas:LeftHandRing2
									{
										OFFSET 2.733170 0.000000 0.000000
										CHANNELS 3 Xrotation Yrotation Zrotation
										JOINT newVegas:LeftHandRing3
										{
											OFFSET 3.178268 0.000000 0.000000
											CHANNELS 3 Xrotation Yrotation Zrotation
											End Site
											{
												OFFSET 0.119102 3.170624 0.185394
											}
										}
									}
								}
								JOINT newVegas:LeftHandPinky1
								{
									OFFSET 15.989624 -0.606689 -7.535461
									CHANNELS 3 Xrotation Yrotation Zrotation
									JOINT newVegas:LeftHandPinky2
									{
										OFFSET 2.538986 0.000000 0.000000
										CHANNELS 3 Xrotation Yrotation Zrotation
										JOINT newVegas:LeftHandPinky3
										{
											OFFSET 2.593102 0.000000 0.000000
											CHANNELS 3 Xrotation Yrotation Zrotation
											End Site
											{
												OFFSET -0.150902 2.584198 0.152708
											}
										}
									}
								}
							}
							JOINT newVegas:Left_Sleeve
							{
								OFFSET 0.267448 -0.649796 0.577675
								CHANNELS 3 Xrotation Yrotation Zrotation
								End Site
								{
									OFFSET 0.000000 15.991241 0.000000
								}
							}
							JOINT newVegas:Left_CapeC
							{
								OFFSET 15.715958 -8.608795 -6.935905
								CHANNELS 3 Xrotation Yrotation Zrotation
								JOINT newVegas:Left_CapeC1
								{
									OFFSET 0.000000 -8.688499 0.000000
									CHANNELS 3 Xrotation Yrotation Zrotation
									End Site
									{
										OFFSET 0.000000 8.688499 0.000000
									}
								}
							}
						}
						JOINT newVegas:Left_CapeB
						{
							OFFSET 26.118385 -8.608795 -7.079235
							CHANNELS 3 Xrotation Yrotation Zrotation
							JOINT newVegas:Left_CapeB1
							{
								OFFSET 0.000000 -8.688499 0.000000
								CHANNELS 3 Xrotation Yrotation Zrotation
								End Site
								{
									OFFSET 0.000000 8.688499 0.000000
								}
							}
						}
						JOINT newVegas:Left_CapeA
						{
							OFFSET 5.115639 -8.608795 -10.395809
							CHANNELS 3 Xrotation Yrotation Zrotation
							JOINT newVegas:Left_CapeA1
							{
								OFFSET 0.000000 -8.688499 0.000000
								CHANNELS 3 Xrotation Yrotation Zrotation
								End Site
								{
									OFFSET 0.000000 8.688499 0.000000
								}
							}
						}
					}
				}
				JOINT newVegas:RightShoulder
				{
					OFFSET -15.263000 10.923401 -0.547700
					CHANNELS 3 Xrotation Yrotation Zrotation
					JOINT newVegas:RightArm
					{
						OFFSET -25.438599 -2.830597 -13.032500
						CHANNELS 3 Xrotation Yrotation Zrotation
						JOINT newVegas:RightForeArm
						{
							OFFSET -29.960503 0.000000 0.000000
							CHANNELS 3 Xrotation Yrotation Zrotation
							JOINT newVegas:RightHand
							{
								OFFSET -27.849251 0.000000 0.000000
								CHANNELS 3 Xrotation Yrotation Zrotation
								JOINT newVegas:RightHandThumb1
								{
									OFFSET -4.487587 -3.305161 6.305391
									CHANNELS 3 Xrotation Yrotation Zrotation
									JOINT newVegas:RightHandThumb2
									{
										OFFSET -5.480453 -3.164139 3.164143
										CHANNELS 3 Xrotation Yrotation Zrotation
										JOINT newVegas:RightHandThumb3
										{
											OFFSET -5.159721 -2.978973 2.978967
											CHANNELS 3 Xrotation Yrotation Zrotation
											End Site
											{
												OFFSET -2.494507 5.926697 1.738678
											}
										}
									}
								}
								JOINT newVegas:RightHandIndex1
								{
									OFFSET -18.578728 -0.527832 5.208049
									CHANNELS 3 Xrotation Yrotation Zrotation
									JOINT newVegas:RightHandIndex2
									{
										OFFSET -3.192009 0.000000 0.000000
										CHANNELS 3 Xrotation Yrotation Zrotation
										JOINT newVegas:RightHandIndex3
										{
											OFFSET -3.835129 0.000000 0.000000
											CHANNELS 3 Xrotation Yrotation Zrotation
											End Site
											{
												OFFSET 0.034599 3.816971 0.371180
											}
										}
									}
								}
								JOINT newVegas:RightHandMiddle1
								{
									OFFSET -18.476105 0.000000 0.000000
									CHANNELS 3 Xrotation Yrotation Zrotation
									JOINT newVegas:RightHandMiddle2
									{
										OFFSET -3.324875 0.000000 0.000000
										CHANNELS 3 Xrotation Yrotation Zrotation
										JOINT newVegas:RightHandMiddle3
										{
											OFFSET -4.596550 0.000000 0.000000
											CHANNELS 3 Xrotation Yrotation Zrotation
											End Site
											{
												OFFSET -0.057701 4.578827 0.399218
											}
										}
									}
								}
								JOINT newVegas:RightHandRing1
								{
									OFFSET -17.732719 0.121887 -4.201567
									CHANNELS 3 Xrotation Yrotation Zrotation
									JOINT newVegas:RightHandRing2
									{
										OFFSET -2.733170 0.000000 0.000000
										CHANNELS 3 Xrotation Yrotation Zrotation
										JOINT newVegas:RightHandRing3
										{
											OFFSET -3.178268 0.000000 0.000000
											CHANNELS 3 Xrotation Yrotation Zrotation
											End Site
											{
												OFFSET -0.119102 3.170624 0.185394
											}
										}
									}
								}
								JOINT newVegas:RightHandPinky1
								{
									OFFSET -15.989624 -0.606689 -7.535461
									CHANNELS 3 Xrotation Yrotation Zrotation
									JOINT newVegas:RightHandPinky2
									{
										OFFSET -2.538986 0.000000 0.000000
										CHANNELS 3 Xrotation Yrotation Zrotation
										JOINT newVegas:RightHandPinky3
										{
											OFFSET -2.593102 0.000000 0.000000
											CHANNELS 3 Xrotation Yrotation Zrotation
											End Site
											{
												OFFSET 0.150902 2.584198 0.152708
											}
										}
									}
								}
							}
							JOINT newVegas:Right_CapeC
							{
								OFFSET -15.715958 -8.608795 -6.935905
								CHANNELS 3 Xrotation Yrotation Zrotation
								JOINT newVegas:Right_CapeC1
								{
									OFFSET 0.000000 -8.688499 0.000000
									CHANNELS 3 Xrotation Yrotation Zrotation
									End Site
									{
										OFFSET 0.000000 8.688499 0.000000
									}
								}
							}
							JOINT newVegas:Right_Sleeve
							{
								OFFSET -0.267448 -0.649994 0.577675
								CHANNELS 3 Xrotation Yrotation Zrotation
								End Site
								{
									OFFSET 0.000000 15.991302 0.000000
								}
							}
						}
						JOINT newVegas:Right_CapeA
						{
							OFFSET -5.115540 -8.608795 -10.395824
							CHANNELS 3 Xrotation Yrotation Zrotation
							JOINT newVegas:Right_CapeA1
							{
								OFFSET 0.000000 -8.688499 0.000000
								CHANNELS 3 Xrotation Yrotation Zrotation
								End Site
								{
									OFFSET 0.000000 8.688499 0.000000
								}
							}
						}
						JOINT newVegas:Right_CapeB
						{
							OFFSET -26.118187 -8.608795 -7.079266
							CHANNELS 3 Xrotation Yrotation Zrotation
							JOINT newVegas:Right_CapeB1
							{
								OFFSET 0.000000 -8.688499 0.000000
								CHANNELS 3 Xrotation Yrotation Zrotation
								End Site
								{
									OFFSET 0.000000 8.688499 0.000000
								}
							}
						}
					}
				}
				JOINT newVegas:Left_Collar
				{
					OFFSET 18.625099 8.655502 8.828100
					CHANNELS 3 Xrotation Yrotation Zrotation
					JOINT newVegas:Left_Collar1
					{
						OFFSET 14.783401 10.540405 -1.259500
						CHANNELS 3 Xrotation Yrotation Zrotation
						End Site
						{
							OFFSET 0.000000 18.199875 0.000000
						}
					}
				}
				JOINT newVegas:Collar_Back
				{
					OFFSET 0.000000 15.630707 -20.132601
					CHANNELS 3 Xrotation Yrotation Zrotation
					End Site
					{
						OFFSET 0.000000 22.523010 0.000000
					}
				}
				JOINT newVegas:Left_Peck
				{
					OFFSET 17.239599 -5.132599 25.482599
					CHANNELS 3 Xrotation Yrotation Zrotation
					End Site
					{
						OFFSET 0.000000 22.523010 0.000000
					}
				}
				JOINT newVegas:Right_Peck
				{
					OFFSET -17.239599 -5.132202 25.482599
					CHANNELS 3 Xrotation Yrotation Zrotation
					End Site
					{
						OFFSET 0.000000 22.523010 0.000000
					}
				}
				JOINT newVegas:Right_Collar
				{
					OFFSET -18.625099 8.655792 8.828100
					CHANNELS 3 Xrotation Yrotation Zrotation
					JOINT newVegas:Right_Collar1
					{
						OFFSET -14.783401 10.539993 -1.259500
						CHANNELS 3 Xrotation Yrotation Zrotation
						End Site
						{
							OFFSET 0.000000 18.199631 0.000000
						}
					}
				}
			}
		}
		JOINT newVegas:Belly
		{
			OFFSET 0.000000 -6.540398 9.014299
			CHANNELS 3 Xrotation Yrotation Zrotation
			End Site
			{
				OFFSET 0.000000 11.566666 0.000000
			}
		}
	}
	JOINT newVegas:ElvisFacialAnim_Joint
	{
		OFFSET 1.000000 -95.330101 -8.825800
		CHANNELS 3 Xrotation Yrotation Zrotation
		End Site
		{
			OFFSET 0.000000 35.315800 0.000000
		}
	}
}
MOTION
Frames: 4
Frame Time: 0.033333
-0.841623 66.026405 126.473412 -2.340671 -17.063471 -1.269214 -0.000000 -0.000000 -0.000000 -47.736592 18.194280 1.063521 97.000140 5.256867 2.152688 30.846425 -0.633777 -0.777174 0.000000 -0.000000 -0.000000 0.000000 -0.000001 -0.000000 -81.859612 -6.177606 13.015731 62.818814 -10.582961 -10.408752 20.264203 -14.270740 -1.079371 -0.000000 -0.000003 -0.000000 0.000001 0.000002 -0.000001 54.760482 -3.552682 9.196740 6.811352 -0.201983 0.802098 6.813397 -0.225708 0.784062 -3.106170 0.376522 -0.529825 -3.106177 0.376521 -0.529818 -0.000001 0.000000 -0.000001 -3.106104 0.376530 -0.529829 -3.106148 0.376469 -0.529816 -0.000002 0.000000 -0.000003 -0.000001 0.000000 -0.000001 13.919844 -27.074834 23.032011 -104.864885 -8.792637 -31.685374 -0.000345 -84.964336 -0.000387 -123.967974 -8.913849 34.808649 4.709221 9.560384 3.111994 19.473190 -1.474897 7.636918 0.000002 0.000002 -0.000006 -0.212814 3.933717 -36.747131 2.942137 5.078892 -60.144610 -0.000002 -0.000001 -0.000001 0.405927 5.507048 -52.453162 3.387134 5.308595 -65.057463 -0.000004 -0.000000 -0.000002 -0.074380 5.736765 -61.061434 4.055046 5.569503 -72.094887 -0.000001 0.000001 -0.000002 -6.565541 4.545163 -72.425229 3.299617 5.267199 -64.107855 0.000001 -0.000002 0.000005 0.000001 -0.000003 -0.000005 0.000001 -0.000003 -0.000005 0.000000 -0.000002 -0.000005 0.000000 -0.000001 -0.000000 0.000000 -0.000002 0.000000 0.000000 -0.000001 -0.000000 -0.000001 -0.000002 -0.000000 0.258031 28.005405 11.116088 -67.195374 43.940598 39.621364 0.000035 114.977533 -0.000028 -35.826166 -33.953362 -25.359135 8.377122 -4.904125 11.022029 21.620182 -18.183941 -18.379264 0.000005 0.000001 0.000001 -1.723256 -0.332036 29.373799 2.560080 -4.159226 63.212137 0.000000 0.000000 0.000000 3.413058 -7.186232 51.650239 6.296794 -4.359579 110.634673 0.000000 -0.000000 0.000002 -3.349056 -2.600413 57.010568 5.440869 -4.590899 99.698195 0.000000 -0.000001 -0.000001 -3.996441 -3.303957 64.593850 4.058839 -4.618642 82.610530 -0.000000 0.000001 0.000001 0.000002 -0.000002 0.000002 0.000001 -0.000002 0.000001 0.000002 -0.000002 0.000001 -0.000000 -0.000003 -0.000003 -0.000000 -0.000002 -0.000001 -0.000000 -0.000003 -0.000003 -0.000000 -0.000002 -0.000002 -0.000001 -0.000000 0.000002 -0.000001 -0.000000 0.000002 -0.000001 -0.000000 0.000002 -0.000001 -0.000000 0.000002 -0.000001 -0.000000 0.000002 -0.000001 -0.000000 0.000002 -0.000001 -0.000000 0.000002 0.000001 -0.000001 0.000001 -0.000000 -0.000000 -0.000000 
-0.957748 66.465157 130.306274 -2.053505 -17.127471 -1.041125 -0.000000 -0.000000 -0.000000 -54.994726 17.088988 3.446568 103.482359 4.908337 2.139802 29.660277 -2.015303 -2.206640 -0.000001 -0.000001 -0.000000 -0.000001 -0.000000 -0.000000 -82.513487 -5.957450 12.580327 69.700318 -10.651952 -10.439043 14.615222 -14.229664 0.730825 -0.000000 -0.000002 0.000000 0.000001 -0.000001 -0.000001 54.374730 -3.413677 8.780263 6.761394 -0.147160 0.769993 6.763340 -0.172340 0.747637 -3.049133 0.356823 -0.511981 -3.049130 0.356814 -0.511990 -0.000000 0.000000 0.000001 -3.049127 0.356835 -0.511998 -3.049105 0.356802 -0.511982 -0.000000 -0.000000 0.000001 -0.000000 0.000000 0.000001 14.014872 -26.470511 23.290329 -105.353100 -9.527445 -32.533434 -0.000141 -80.527958 -0.000148 -125.462078 -7.772626 32.174607 4.709224 9.560384 3.111990 19.473187 -1.474900 7.636918 0.000000 -0.000003 0.000000 -0.212815 3.933719 -36.747131 2.942137 5.078892 -60.144610 0.000001 -0.000001 0.000001 0.405927 5.507053 -52.453165 3.387130 5.308597 -65.057456 -0.000006 0.000001 -0.000002 -0.074381 5.736768 -61.061440 4.055048 5.569498 -72.094887 0.000001 -0.000001 -0.000001 -6.565542 4.545158 -72.425229 3.299615 5.267197 -64.107848 -0.000003 -0.000005 0.000001 0.000001 -0.000000 -0.000002 0.000001 -0.000000 -0.000002 0.000000 0.000000 -0.000002 0.000002 0.000001 -0.000002 0.000003 -0.000000 -0.000002 0.000002 0.000001 -0.000002 0.000001 0.000000 -0.000002 0.401700 28.142403 10.548829 -68.575338 44.244610 39.936519 -0.000009 112.422598 -0.000003 -36.111757 -34.246224 -25.022168 8.377120 -4.904122 11.022027 21.620185 -18.183937 -18.379262 0.000003 0.000001 0.000001 -1.410269 0.787090 20.636486 1.515533 -3.439656 47.547051 -0.000001 0.000000 0.000000 3.413058 -7.186232 51.650242 6.296793 -4.359578 110.634673 0.000001 0.000000 -0.000000 -3.349058 -2.600414 57.010561 5.440869 -4.590900 99.698195 0.000001 -0.000001 0.000001 -3.996447 -3.303956 64.593850 4.058840 -4.618641 82.610537 -0.000001 -0.000000 -0.000000 0.000000 0.000001 0.000001 0.000000 -0.000003 -0.000001 0.000000 0.000001 0.000001 -0.000000 -0.000003 -0.000002 -0.000000 -0.000003 -0.000001 -0.000000 -0.000003 -0.000002 -0.000000 -0.000003 -0.000001 -0.000001 0.000000 0.000001 -0.000001 0.000000 0.000001 -0.000001 0.000000 0.000001 -0.000001 0.000000 0.000001 -0.000001 0.000000 0.000001 -0.000001 0.000000 0.000001 -0.000001 0.000000 0.000001 0.000003 0.000000 0.000001 -0.000000 -0.000000 -0.000000 
-1.014220 67.639282 134.236572 -1.686792 -17.316439 -0.444599 0.000000 0.000001 0.000000 -65.413350 15.225472 6.386521 110.284558 5.316321 2.116369 25.514359 -2.724971 -1.922684 -0.000002 0.000000 -0.000000 -0.000003 0.000000 0.000001 -81.450668 -5.221625 11.929316 74.832727 -10.435848 -10.341305 8.548725 -14.364837 2.147349 0.000000 -0.000002 0.000000 -0.000000 0.000000 -0.000000 54.388974 -3.752670 7.946105 6.790890 -0.107131 0.705493 6.792761 -0.135621 0.680879 -3.071276 0.351542 -0.506618 -3.071286 0.351542 -0.506625 0.000001 0.000001 -0.000001 -3.071283 0.351559 -0.506628 -3.071288 0.351544 -0.506631 0.000001 0.000001 -0.000000 0.000001 0.000001 -0.000001 14.050433 -26.018573 23.376044 -107.223861 -11.166044 -33.002624 -0.000135 -76.484916 -0.000135 -125.949385 -6.272913 30.968498 4.709221 9.560384 3.111995 19.473187 -1.474899 7.636919 0.000003 -0.000002 0.000003 -0.212814 3.933721 -36.747131 2.942137 5.078895 -60.144610 -0.000001 -0.000001 -0.000000 0.405927 5.507050 -52.453162 3.387134 5.308595 -65.057456 -0.000003 -0.000000 0.000001 -0.074383 5.736766 -61.061434 4.055044 5.569502 -72.094880 0.000002 -0.000002 -0.000003 -6.565544 4.545166 -72.425229 3.299621 5.267199 -64.107848 -0.000002 -0.000003 -0.000001 -0.000000 0.000003 0.000001 -0.000000 0.000003 0.000001 -0.000000 0.000004 0.000001 0.000000 0.000000 -0.000001 0.000000 -0.000001 -0.000001 0.000000 0.000000 -0.000001 -0.000001 -0.000001 -0.000001 0.444023 28.461040 10.367180 -71.135013 45.088732 41.077850 -0.000000 109.919935 0.000002 -36.183576 -34.278097 -24.425499 8.377122 -4.904124 11.022029 21.620182 -18.183939 -18.379264 0.000003 0.000000 0.000001 -0.997980 1.568830 13.580411 0.840846 -2.671239 34.940615 -0.000000 -0.000000 -0.000002 3.413057 -7.186232 51.650242 6.296793 -4.359579 110.634667 -0.000000 0.000000 0.000000 -3.349059 -2.600413 57.010558 5.440869 -4.590898 99.698195 -0.000000 -0.000001 0.000000 -3.996444 -3.303953 64.593850 4.058841 -4.618637 82.610537 -0.000000 0.000002 0.000000 0.000001 0.000001 0.000001 0.000001 0.000001 0.000001 0.000001 0.000001 0.000001 -0.000000 0.000003 -0.000002 -0.000000 0.000004 -0.000002 -0.000000 0.000003 -0.000002 -0.000000 0.000004 -0.000003 -0.000001 -0.000000 0.000001 -0.000001 -0.000000 0.000001 -0.000001 -0.000000 0.000001 -0.000001 -0.000000 0.000001 -0.000001 -0.000000 0.000001 -0.000001 -0.000000 0.000001 -0.000001 -0.000000 0.000001 -0.000000 0.000001 -0.000001 0.000000 0.000001 0.000000 
-1.252620 68.543518 138.214859 -1.301737 -17.513011 -0.256637 -0.000000 -0.000001 -0.000000 -77.425453 13.754500 8.961735 113.049637 7.696060 2.164430 26.400604 -1.326056 3.549278 0.000001 -0.000000 -0.000000 -0.000001 0.000001 0.000000 -79.851147 -4.759746 11.568570 79.494345 -10.641297 -10.265843 2.312079 -14.518061 3.459087 -0.000000 -0.000002 -0.000000 -0.000000 -0.000002 0.000000 54.618212 -3.938748 7.337049 6.848055 -0.114229 0.641423 6.849698 -0.144087 0.616270 -3.134547 0.359270 -0.522093 -3.134548 0.359270 -0.522101 0.000000 -0.000001 0.000001 -3.134543 0.359274 -0.522097 -3.134590 0.359304 -0.522117 -0.000003 -0.000000 0.000001 0.000000 -0.000001 0.000001 13.984722 -25.539249 23.272171 -108.825985 -12.475442 -33.538995 0.000010 -75.226898 -0.000001 -125.399514 -5.705207 31.414021 4.709221 9.560381 3.111991 19.473189 -1.474892 7.636918 0.000001 -0.000001 0.000000 -0.212813 3.933718 -36.747128 2.942141 5.078886 -60.144610 -0.000001 -0.000001 -0.000001 0.405927 5.507055 -52.453162 3.387129 5.308595 -65.057456 -0.000004 -0.000000 -0.000000 -0.074381 5.736767 -61.061440 4.055047 5.569501 -72.094880 0.000003 -0.000001 0.000003 -6.565545 4.545163 -72.425229 3.299617 5.267199 -64.107841 -0.000002 -0.000002 -0.000000 0.000000 0.000002 0.000003 0.000000 0.000002 0.000003 0.000000 0.000002 0.000003 0.000000 -0.000001 -0.000000 0.000000 -0.000002 -0.000002 0.000000 -0.000001 -0.000000 -0.000002 -0.000002 -0.000001 0.423480 28.863119 10.416979 -72.937883 45.189129 41.993639 -0.000049 109.475891 0.000031 -36.257475 -34.491561 -24.172649 8.377122 -4.904123 11.022030 21.620175 -18.183939 -18.379264 0.000001 -0.000002 -0.000001 -0.920031 1.683574 12.434989 0.748107 -2.533470 32.898293 -0.000000 0.000000 0.000002 3.413058 -7.186232 51.650239 6.296794 -4.359578 110.634673 0.000000 0.000000 -0.000001 -3.349055 -2.600414 57.010561 5.440871 -4.590902 99.698188 -0.000000 0.000001 0.000001 -3.996442 -3.303956 64.593850 4.058837 -4.618635 82.610537 0.000000 0.000002 -0.000001 -0.000000 0.000001 0.000001 -0.000000 0.000000 -0.000001 -0.000000 0.000001 -0.000001 0.000000 0.000001 0.000001 0.000000 0.000002 0.000001 0.000000 0.000001 0.000001 0.000000 0.000002 0.000001 -0.000000 -0.000001 0.000003 -0.000000 -0.000001 0.000003 -0.000000 -0.000001 0.000003 -0.000000 -0.000001 0.000003 -0.000000 -0.000001 0.000003 -0.000000 -0.000001 0.000003 -0.000000 -0.000001 0.000003 0.000001 0.000001 -0.000001 -0.000000 -0.000001 -0.000000 
